<svg id="visual" viewBox="0 0 960 540" width="960" height="540" xmlns="http://www.w3.org/2000/svg" xmlns:xlink="http://www.w3.org/1999/xlink" version="1.1"><rect x="0" y="0" width="960" height="540" fill="#302f2a"></rect><defs><linearGradient id="grad1_0" x1="43.8%" y1="0%" x2="100%" y2="100%"><stop offset="14.444444444444446%" stop-color="#fcc805" stop-opacity="1"></stop><stop offset="85.55555555555554%" stop-color="#fcc805" stop-opacity="1"></stop></linearGradient></defs><defs><linearGradient id="grad1_1" x1="43.8%" y1="0%" x2="100%" y2="100%"><stop offset="14.444444444444446%" stop-color="#fcc805" stop-opacity="1"></stop><stop offset="85.55555555555554%" stop-color="#d9b11b" stop-opacity="1"></stop></linearGradient></defs><defs><linearGradient id="grad1_2" x1="43.8%" y1="0%" x2="100%" y2="100%"><stop offset="14.444444444444446%" stop-color="#b89b25" stop-opacity="1"></stop><stop offset="85.55555555555554%" stop-color="#d9b11b" stop-opacity="1"></stop></linearGradient></defs><defs><linearGradient id="grad1_3" x1="43.8%" y1="0%" x2="100%" y2="100%"><stop offset="14.444444444444446%" stop-color="#b89b25" stop-opacity="1"></stop><stop offset="85.55555555555554%" stop-color="#99852a" stop-opacity="1"></stop></linearGradient></defs><defs><linearGradient id="grad1_4" x1="43.8%" y1="0%" x2="100%" y2="100%"><stop offset="14.444444444444446%" stop-color="#7c6e2c" stop-opacity="1"></stop><stop offset="85.55555555555554%" stop-color="#99852a" stop-opacity="1"></stop></linearGradient></defs><defs><linearGradient id="grad1_5" x1="43.8%" y1="0%" x2="100%" y2="100%"><stop offset="14.444444444444446%" stop-color="#7c6e2c" stop-opacity="1"></stop><stop offset="85.55555555555554%" stop-color="#61592d" stop-opacity="1"></stop></linearGradient></defs><defs><linearGradient id="grad1_6" x1="43.8%" y1="0%" x2="100%" y2="100%"><stop offset="14.444444444444446%" stop-color="#48432c" stop-opacity="1"></stop><stop offset="85.55555555555554%" stop-color="#61592d" stop-opacity="1"></stop></linearGradient></defs><defs><linearGradient id="grad1_7" x1="43.8%" y1="0%" x2="100%" y2="100%"><stop offset="14.444444444444446%" stop-color="#48432c" stop-opacity="1"></stop><stop offset="85.55555555555554%" stop-color="#302f2a" stop-opacity="1"></stop></linearGradient></defs><defs><linearGradient id="grad2_0" x1="0%" y1="0%" x2="56.3%" y2="100%"><stop offset="14.444444444444446%" stop-color="#fcc805" stop-opacity="1"></stop><stop offset="85.55555555555554%" stop-color="#fcc805" stop-opacity="1"></stop></linearGradient></defs><defs><linearGradient id="grad2_1" x1="0%" y1="0%" x2="56.3%" y2="100%"><stop offset="14.444444444444446%" stop-color="#d9b11b" stop-opacity="1"></stop><stop offset="85.55555555555554%" stop-color="#fcc805" stop-opacity="1"></stop></linearGradient></defs><defs><linearGradient id="grad2_2" x1="0%" y1="0%" x2="56.3%" y2="100%"><stop offset="14.444444444444446%" stop-color="#d9b11b" stop-opacity="1"></stop><stop offset="85.55555555555554%" stop-color="#b89b25" stop-opacity="1"></stop></linearGradient></defs><defs><linearGradient id="grad2_3" x1="0%" y1="0%" x2="56.3%" y2="100%"><stop offset="14.444444444444446%" stop-color="#99852a" stop-opacity="1"></stop><stop offset="85.55555555555554%" stop-color="#b89b25" stop-opacity="1"></stop></linearGradient></defs><defs><linearGradient id="grad2_4" x1="0%" y1="0%" x2="56.3%" y2="100%"><stop offset="14.444444444444446%" stop-color="#99852a" stop-opacity="1"></stop><stop offset="85.55555555555554%" stop-color="#7c6e2c" stop-opacity="1"></stop></linearGradient></defs><defs><linearGradient id="grad2_5" x1="0%" y1="0%" x2="56.3%" y2="100%"><stop offset="14.444444444444446%" stop-color="#61592d" stop-opacity="1"></stop><stop offset="85.55555555555554%" stop-color="#7c6e2c" stop-opacity="1"></stop></linearGradient></defs><defs><linearGradient id="grad2_6" x1="0%" y1="0%" x2="56.3%" y2="100%"><stop offset="14.444444444444446%" stop-color="#61592d" stop-opacity="1"></stop><stop offset="85.55555555555554%" stop-color="#48432c" stop-opacity="1"></stop></linearGradient></defs><defs><linearGradient id="grad2_7" x1="0%" y1="0%" x2="56.3%" y2="100%"><stop offset="14.444444444444446%" stop-color="#302f2a" stop-opacity="1"></stop><stop offset="85.55555555555554%" stop-color="#48432c" stop-opacity="1"></stop></linearGradient></defs><g transform="translate(960, 0)"><path d="M0 405C-37.7 337.5 -75.4 269.9 -140.5 243.4C-205.6 216.8 -298.3 231.2 -342.1 197.5C-385.9 163.8 -381 81.9 -376 0L0 0Z" fill="#3c392b"></path><path d="M0 354.4C-33 295.3 -65.9 236.2 -122.9 212.9C-179.9 189.7 -261 202.3 -299.3 172.8C-337.7 143.3 -333.3 71.7 -329 0L0 0Z" fill="#544e2d"></path><path d="M0 303.8C-28.3 253.1 -56.5 202.4 -105.4 182.5C-154.2 162.6 -223.7 173.4 -256.6 148.1C-289.4 122.8 -285.7 61.4 -282 0L0 0Z" fill="#6e642d"></path><path d="M0 253.1C-23.5 210.9 -47.1 168.7 -87.8 152.1C-128.5 135.5 -186.4 144.5 -213.8 123.4C-241.2 102.4 -238.1 51.2 -235 0L0 0Z" fill="#8a792b"></path><path d="M0 202.5C-18.8 168.7 -37.7 135 -70.2 121.7C-102.8 108.4 -149.1 115.6 -171 98.8C-193 81.9 -190.5 40.9 -188 0L0 0Z" fill="#a89028"></path><path d="M0 151.9C-14.1 126.5 -28.3 101.2 -52.7 91.3C-77.1 81.3 -111.8 86.7 -128.3 74.1C-144.7 61.4 -142.9 30.7 -141 0L0 0Z" fill="#c8a621"></path><path d="M0 101.3C-9.4 84.4 -18.8 67.5 -35.1 60.8C-51.4 54.2 -74.6 57.8 -85.5 49.4C-96.5 40.9 -95.2 20.5 -94 0L0 0Z" fill="#eabd13"></path><path d="M0 50.6C-4.7 42.2 -9.4 33.7 -17.6 30.4C-25.7 27.1 -37.3 28.9 -42.8 24.7C-48.2 20.5 -47.6 10.2 -47 0L0 0Z" fill="#fcc805"></path></g><g transform="translate(0, 540)"><path d="M0 -264C87.5 -323.6 175.1 -383.2 202.5 -350.7C229.9 -318.3 197.3 -193.8 207.8 -120C218.4 -46.2 272.2 -23.1 326 0L0 0Z" fill="#3c392b"></path><path d="M0 -231C76.6 -283.1 153.2 -335.3 177.2 -306.9C201.2 -278.5 172.6 -169.6 181.9 -105C191.1 -40.4 238.2 -20.2 285.3 0L0 0Z" fill="#544e2d"></path><path d="M0 -198C65.6 -242.7 131.3 -287.4 151.9 -263.1C172.5 -238.7 148 -145.3 155.9 -90C163.8 -34.7 204.2 -17.3 244.5 0L0 0Z" fill="#6e642d"></path><path d="M0 -165C54.7 -202.2 109.4 -239.5 126.6 -219.2C143.7 -198.9 123.3 -121.1 129.9 -75C136.5 -28.9 170.1 -14.4 203.8 0L0 0Z" fill="#8a792b"></path><path d="M0 -132C43.8 -161.8 87.5 -191.6 101.2 -175.4C115 -159.1 98.6 -96.9 103.9 -60C109.2 -23.1 136.1 -11.6 163 0L0 0Z" fill="#a89028"></path><path d="M0 -99C32.8 -121.3 65.6 -143.7 75.9 -131.5C86.2 -119.4 74 -72.7 77.9 -45C81.9 -17.3 102.1 -8.7 122.3 0L0 0Z" fill="#c8a621"></path><path d="M0 -66C21.9 -80.9 43.8 -95.8 50.6 -87.7C57.5 -79.6 49.3 -48.4 52 -30C54.6 -11.6 68.1 -5.8 81.5 0L0 0Z" fill="#eabd13"></path><path d="M0 -33C10.9 -40.4 21.9 -47.9 25.3 -43.8C28.7 -39.8 24.7 -24.2 26 -15C27.3 -5.8 34 -2.9 40.8 0L0 0Z" fill="#fcc805"></path></g></svg>