<svg id="visual" viewBox="0 0 900 600" width="900" height="600" xmlns="http://www.w3.org/2000/svg" xmlns:xlink="http://www.w3.org/1999/xlink" version="1.1"><rect x="0" y="0" width="900" height="600" fill="#3a3a3a"></rect><path d="M0 379L129 418L257 379L386 414L514 423L643 418L771 372L900 359L900 601L771 601L643 601L514 601L386 601L257 601L129 601L0 601Z" fill="#dee50d"></path><path d="M0 417L129 397L257 450L386 475L514 426L643 414L771 428L900 460L900 601L771 601L643 601L514 601L386 601L257 601L129 601L0 601Z" fill="#a3b016"></path><path d="M0 509L129 499L257 472L386 463L514 459L643 497L771 491L900 460L900 601L771 601L643 601L514 601L386 601L257 601L129 601L0 601Z" fill="#6f7d16"></path><path d="M0 538L129 501L257 484L386 542L514 531L643 537L771 508L900 501L900 601L771 601L643 601L514 601L386 601L257 601L129 601L0 601Z" fill="#414d11"></path><path d="M0 543L129 573L257 556L386 539L514 544L643 555L771 550L900 542L900 601L771 601L643 601L514 601L386 601L257 601L129 601L0 601Z" fill="#1c2104"></path></svg>